# xmcd CD database file
#
# Track frame offsets:
#	150
#	19686
#	40563
#	60170
#	79492
#
# Disc length: 1358 seconds
#
# Revision: 0
# Processed by: cddbd v1.5.2PL0 Copyright (c) Steve Scherf et al.
# Submitted via: CDex 1.51
#
DISCID=2e054c05
DTITLE=Les rois de la danse - Les rois de la danse
DYEAR=2003
DGENRE=Jazz
TTITLE0=Bio Dub Pechno Beat
TTITLE1=La Contrebasse
TTITLE2=Juste une chambre d'amour
TTITLE3=Rural basic jâze
TTITLE4=L'ancien
EXTD=YEAR: 2003
EXTT0=
EXTT1=
EXTT2=
EXTT3=
EXTT4=
PLAYORDER=
